# xmcd CD database file
#
# Track frame offsets:
#	150
#	14587
#	24112
#	36777
#	52730
#	62775
#	78625
#	108155
#	128555
#	144910
#	161700
#	172955
#	192425
#	207900
#	229050
#	245235
#	265127
#	302365
#	322075
#
# Disc length: 4431 seconds
#
# Revision: 3
# Processed by: cddbd v1.5.2PL0 Copyright (c) Steve Scherf et al.
# Submitted via: CDex 1.51
#
DISCID=fb114d13
DTITLE=Jacobus Gallus - Opus Musicum - Missa super 'Sancta Maria'  (Huelgas Ensemble, Paul Van Nevel)
DYEAR=1994
DGENRE=Classique
TTITLE0=Opus musicum - Venite ascendamus    {Jacobus Gallus  1550-1591}
TTITLE1=Opus musicum - Obsecro Domine
TTITLE2=Opus musicum - Tribus miraculis
TTITLE3=Opus musicum - Mirabile misterium
TTITLE4=Opus musicum - Ab oriente venerunt magi
TTITLE5=Opus musicum - Pater noster
TTITLE6=Opus musicum - Lamentatur jacob
TTITLE7=Opus musicum - Eripe me
TTITLE8=Opus musicum - Versa est in luctum cithara mea
TTITLE9=Opus musicum - Quo mihi crude dolor
TTITLE10=Opus musicum - O beata Trinitas
TTITLE11=Opus musicum - Planxit David
TTITLE12=Opus musicum - Jesu dulcis memoria
TTITLE13=Opus musicum - Domine Deus exaudi orationem
TTITLE14=Missa super 'Sancta Maria' - Kyrie
TTITLE15=Missa super 'Sancta Maria' - Gloria
TTITLE16=Missa super 'Sancta Maria' - Credo
TTITLE17=Missa super 'Sancta Maria' - Sanctus
TTITLE18=Missa super 'Sancta Maria' - Agnus Dei
EXTD=YEAR: 1994
EXTT0=
EXTT1=
EXTT2=
EXTT3=
EXTT4=
EXTT5=
EXTT6=
EXTT7=
EXTT8=
EXTT9=
EXTT10=
EXTT11=
EXTT12=
EXTT13=
EXTT14=
EXTT15=
EXTT16=
EXTT17=
EXTT18=
PLAYORDER=
